<svg xmlns="http://www.w3.org/2000/svg"><style>:root svg:not(:target){display:none}</style><svg fill="none" id="food" viewBox="0 0 80 80"><path fill="#81B3D2" fill-rule="evenodd" d="M72.5 36.4V34c-.7-15.5-15-28-32.7-28C22.1 6 7.7 18.5 7 34.1v3h65.5v-.7ZM39.8 9c16 0 29.1 11.2 29.7 25.1H10C10.7 20.2 23.8 9 39.8 9ZM23.2 48.9l-5.3-4-5.5 4L6 44.2l1.8-2.4 4.6 3.3 5.5-4 5.3 4 5.5-4 5.5 4 5.5-4 5.4 4 5.5-4 5.5 4 5.4-4 5.5 4 4.6-3.3 1.7 2.4-6.3 4.7-5.5-4-5.4 4-5.5-4-5.5 4-5.4-4-5.5 4-5.5-4-5.5 4ZM6.2 52h67.5c2.4 0 4.3 2 4.3 4.2v3.5c0 2.4-2 4.3-4.3 4.3h-1v1a10 10 0 0 1-9.9 9.9H17.2a10 10 0 0 1-10-10v-1h-1A4.2 4.2 0 0 1 2 60v-3.5C2 54 3.9 52 6.3 52ZM63 72a7 7 0 0 0 7-7v-1H10.1v1c0 3.9 3 7 6.9 7h45.8Zm10.8-11c.7 0 1.3-.5 1.3-1.2h.1v-3.4c0-.7-.6-1.3-1.3-1.3H6.3c-.7 0-1.3.6-1.3 1.2v3.5c0 .7.6 1.3 1.3 1.3h67.4ZM42 21.7a2 2 0 1 1-4 0 2 2 0 0 1 4 0Zm-10-3a2 2 0 1 0 0-4 2 2 0 0 0 0 4Zm18-2a2 2 0 1 1-4 0 2 2 0 0 1 4 0Z" clip-rule="evenodd"></path></svg><svg fill="none" id="gift" viewBox="0 0 80 80"><path fill="#81B3D2" d="M69.2 25.1H44.8c13.6-6.8 14.7-11 14.2-13.5-1.1-3.9-5.6-6.9-9.8-5.3-5.5 2.1-7 10.3-8.5 16.2-1.9-6-3.7-13.6-8-17.5A7.3 7.3 0 0 0 27 3c-4 .4-9.7 5.3-7.3 10.8 2.2 5.3 9.5 8.7 14.4 11.4H11.8A2.8 2.8 0 0 0 9 28v11.2c0 1.6 1.3 2.8 2.8 2.8h.3v36h57V42h.1c1.6 0 2.8-1.3 2.8-2.8V28c0-1.6-1.3-2.9-2.8-2.9ZM50.8 8.8c2.1-.3 4.9 1.3 5.2 3.2.4 2.7-3.3 5.2-5 6.3-2.5 1.7-4.9 2.6-7.2 4 .8-3.7 2.5-12.9 7-13.5Zm-22.6 9.8c-2.2-1.5-6.4-4.4-6.3-7.7.1-3.6 5.7-6.5 8.7-3.8 3.8 3.3 5.6 11 7 16.4-3.2-1.6-6.2-2.8-9.4-4.9ZM34.1 75H15V42h19.1v33Zm0-36H12V28.1h22.1v11Zm10 36H37V28.1h7.1V75Zm22 0h-19V42h19.1v33h-.1ZM69 39H47.1V28.1H69v11Z"></path></svg><svg fill="none" id="house" viewBox="0 0 80 80"><path fill="#81B3D2" fill-rule="evenodd" d="M75.9 43.18 78 41.1l-9.94-9.84V4.4H54.2v13.12L40.45 4 3 41.2l2.1 2.08 7.84-7.76v37.6H9.02V76h64.16v-2.88h-5.12v-37.7l7.83 7.76ZM57.11 7.38h7.93v20.98l-7.93-7.85V7.38Zm7.93 65.64h-49.1V32.54l24.5-24.36 24.6 24.36v40.48Zm-31.93-4.48h16.06V44.77H33.12v23.77Zm13.05-2.88H36.03v-18h10.14v18ZM40.85 39.3a7.78 7.78 0 0 1-7.73-7.75 7.63 7.63 0 0 1 7.73-7.66 7.72 7.72 0 0 1 7.83 7.66 7.8 7.8 0 0 1-7.83 7.75Zm5.02-7.75a5.01 5.01 0 0 0-10.04 0 5.01 5.01 0 0 0 10.04 0ZM23.08 44.77h-3.01v3.88h3.01v-3.88Zm3.01 0h3.01v3.88h-3v-3.88Zm-3.01 5.97h-3.01v3.88h3.01v-3.88Zm3.01 0h3.01v3.88h-3v-3.88Zm29.12-5.97H52.2v3.88h3v-3.88Zm3.01 0h3.01v3.88h-3v-3.88Zm-3.01 5.97H52.2v3.88h3v-3.88Zm3.01 0h3.01v3.88h-3v-3.88Z" clip-rule="evenodd"></path></svg><svg fill="none" id="htmlacademy" viewBox="0 0 27 35"><path d="M13.6 0h-.1L0 1.4v24.7l13.5 8 13.4-8V1.4L13.6 0ZM25 12.1 13.5 5.3v-.1h-.1l-.1-.1v.1L1.9 12.1v-9l11.5-1.2L25 3.1v9ZM13.4 6.8l11.5 6.7-4.5 2.6-7.1-4.2v1.4l5.9 3.5-.9.5-5-3v1.4l3.8 2.3-.8.5-3-1.8v1.4l1.9 1.1-1.8 1.1L2 13.6l11.4-6.8ZM1.9 15.1l11.4 6.8v1l-7.9-4.7v1.4l8 4.8v1.1l-8-4.7v1.4l8 4.8 8.1-4.9v-5.2l3.4-2v10l-11.5 6.9L1.9 25v-9.9Z" fill="#000"></path></svg><svg fill="none" id="icon-cross" viewBox="0 0 26 25"><path d="M26 3.153 22.72 0 13 9.347 3.28 0 0 3.153 9.72 12.5 0 21.847 3.28 25 13 15.653 22.72 25 26 21.847 16.28 12.5 26 3.153Z" fill="#fff"></path></svg><svg fill="none" id="icon-menu" viewBox="0 0 23 22"><path d="M22.9 0H0v4h22.9V0ZM22.9 9H0v4h22.9V9ZM22.9 18H0v4h22.9v-4Z" fill="#81B3D2"></path></svg><svg fill="none" id="telegram" viewBox="0 0 24 24"><path d="m22.44 4.622-3.17 14.944c-.239 1.055-.862 1.317-1.748.82l-4.828-3.558-2.33 2.242c-.258.258-.473.473-.97.473l.347-4.917 8.948-8.086c.39-.346-.085-.54-.604-.192L7.022 13.314 2.26 11.823c-1.036-.323-1.055-1.036.216-1.533l18.627-7.177c.863-.323 1.617.192 1.336 1.51Z" fill="#fff"></path></svg><svg fill="none" id="vkontakte" viewBox="0 0 24 24"><g clip-path="url(#vkontakte_0)"><path fill="#fff" fill-rule="evenodd" d="M23.45 5.95c.17-.55 0-.95-.8-.95h-2.62c-.67 0-.98.35-1.14.73 0 0-1.34 3.2-3.23 5.27-.61.6-.89.8-1.22.8-.17 0-.42-.2-.42-.74V5.95c0-.66-.18-.95-.74-.95H9.15c-.42 0-.67.3-.67.6 0 .61.95.76 1.05 2.5v3.8c0 .84-.16.99-.5.99-.88 0-3.05-3.21-4.33-6.89-.25-.71-.5-1-1.17-1H.9c-.75 0-.9.35-.9.73 0 .68.89 4.07 4.14 8.55C6.32 17.34 9.38 19 12.15 19c1.67 0 1.88-.37 1.88-1v-2.32c0-.73.16-.88.69-.88.38 0 1.05.2 2.61 1.67C19.11 18.22 19.4 19 20.41 19h2.62c.75 0 1.13-.37.91-1.1-.24-.72-1.09-1.77-2.21-3.02-.62-.7-1.54-1.47-1.81-1.86-.4-.49-.28-.7 0-1.14 0 0 3.2-4.43 3.53-5.93Z" clip-rule="evenodd"></path></g><defs><clipPath id="vkontakte_0"><path fill="#fff" d="M0 0h24v24H0z"></path></clipPath></defs></svg><svg fill="none" id="youtube" viewBox="0 0 24 24"><path d="M19.181 5H4.813C3.306 5 2 6.3 2 7.8v8.3C2 17.7 3.306 19 4.813 19h14.368c1.608 0 2.814-1.3 2.814-2.8V7.8c.1-1.5-1.206-2.8-2.814-2.8ZM9.033 15.4V8.6l6.833 3.4-6.833 3.4Z" fill="#fff"></path></svg></svg>