<svg width="512" height="512" viewBox="0 0 512 512" fill="none" xmlns="http://www.w3.org/2000/svg">
<rect width="512" height="512" fill="#81B3D3"/>
<path d="M171.57 315.895C171.931 316.25 172.114 316.6 172.114 316.954C172.48 316.954 172.841 317.127 173.202 317.481C183.005 328.033 194.084 337.886 206.429 347.033C218.774 355.827 232.939 360.576 248.915 361.28C249.281 361.28 249.642 361.462 250.003 361.812H251.64C252.001 361.812 252.367 361.984 252.728 362.339H258.718C260.538 361.984 262.17 361.635 263.624 361.28C269.445 360.221 274.996 358.071 279.966 354.95C285.407 351.782 289.586 347.91 292.489 343.339L293.582 341.226L294.67 339.117C295.397 336.654 295.942 334.368 296.307 332.255C296.669 330.146 296.851 328.21 296.851 326.452C296.851 316.954 292.489 309.038 283.779 302.703C275.658 296.147 266.448 290.972 256.542 287.397C252.816 286.065 248.992 285.008 245.102 284.234C241.687 283.233 238.235 282.353 234.755 281.594H233.666C233.301 281.244 232.939 281.067 232.578 281.067C214.916 276.897 198.016 270.134 182.465 261.012C166.846 251.515 156.138 237.968 150.327 220.376C149.188 216.695 148.099 213.001 147.057 209.293C146.312 205.276 145.767 201.227 145.425 197.159C145.09 195.952 144.908 194.71 144.881 193.46V180.795C145.242 177.982 145.786 175.169 146.513 172.351C147.641 165.165 149.464 158.098 151.959 151.243C154.501 144.208 157.77 137.873 161.762 132.247C173.385 113.597 188.272 100.227 206.429 92.1381C224.952 84.0445 244.196 80 264.168 80C268.892 80 273.61 80.3499 278.334 81.0543C283.434 81.4074 288.52 81.9349 293.582 82.6358C306.828 84.7944 319.794 88.3339 332.255 93.1924C345.327 98.1185 357.311 103.922 368.207 110.607L338.249 175.519C328.473 168.5 318.083 162.321 307.199 157.05C296.307 151.77 284.506 149.134 271.795 149.134H267.433C259.084 150.188 251.279 153.883 244.014 160.213C236.753 166.194 233.122 172.706 233.122 179.74V182.908C233.484 183.962 234.028 185.016 234.755 186.075C235.482 188.538 236.753 190.824 238.568 192.937C240.383 195.046 242.381 196.982 244.558 198.741C248.554 201.908 254.361 204.898 261.992 207.711C269.614 210.174 277.607 212.637 285.96 215.1C292.855 216.859 299.572 218.618 306.11 220.376C312.649 221.785 318.095 223.194 322.452 224.603C342.785 231.637 358.038 243.421 368.207 259.958C378.371 276.141 383.639 293.382 384 311.673V314.314C384 316.427 383.822 318.54 383.456 320.649V326.452C381.28 344.748 375.107 362.162 364.938 378.699C355.135 395.236 341.88 407.901 325.177 416.699C318.977 419.522 312.611 421.988 306.11 424.084C299.619 425.833 293.081 427.418 286.504 428.837C281.111 429.885 275.652 430.589 270.163 430.946C264.927 431.635 259.649 431.987 254.365 432H248.371C226.584 431.3 205.163 426.724 184.098 418.276C163.038 409.483 144.337 397.872 128 383.448L171.57 315.895Z" fill="white"/>
</svg>
