<svg xmlns="http://www.w3.org/2000/svg" width="80" height="80" fill="none"><path fill="#81B3D2" fill-rule="evenodd" d="M72.5 36.4V34c-.7-15.5-15-28-32.7-28C22.1 6 7.7 18.5 7 34.1v3h65.5v-.7ZM39.8 9c16 0 29.1 11.2 29.7 25.1H10C10.7 20.2 23.8 9 39.8 9ZM23.2 48.9l-5.3-4-5.5 4L6 44.2l1.8-2.4 4.6 3.3 5.5-4 5.3 4 5.5-4 5.5 4 5.5-4 5.4 4 5.5-4 5.5 4 5.4-4 5.5 4 4.6-3.3 1.7 2.4-6.3 4.7-5.5-4-5.4 4-5.5-4-5.5 4-5.4-4-5.5 4-5.5-4-5.5 4ZM6.2 52h67.5c2.4 0 4.3 2 4.3 4.2v3.5c0 2.4-2 4.3-4.3 4.3h-1v1a10 10 0 0 1-9.9 9.9H17.2a10 10 0 0 1-10-10v-1h-1A4.2 4.2 0 0 1 2 60v-3.5C2 54 3.9 52 6.3 52ZM63 72a7 7 0 0 0 7-7v-1H10.1v1c0 3.9 3 7 6.9 7h45.8Zm10.8-11c.7 0 1.3-.5 1.3-1.2h.1v-3.4c0-.7-.6-1.3-1.3-1.3H6.3c-.7 0-1.3.6-1.3 1.2v3.5c0 .7.6 1.3 1.3 1.3h67.4ZM42 21.7a2 2 0 1 1-4 0 2 2 0 0 1 4 0Zm-10-3a2 2 0 1 0 0-4 2 2 0 0 0 0 4Zm18-2a2 2 0 1 1-4 0 2 2 0 0 1 4 0Z" clip-rule="evenodd"/></svg>